<svg xmlns="http://www.w3.org/2000/svg" width="23" height="23" viewBox="0 0 23 23">
    <g fill="none" fill-rule="evenodd">
        <rect width="1055" height="492" y="33" stroke="#6236FF" stroke-width="4" rx="19" transform="translate(-190 -104)"/>
        <g fill="#fff" fill-rule="nonzero">
            <path d="M11.418 0c6.306 0 11.418 5.112 11.418 11.418 0 6.306-5.112 11.418-11.418 11.418C5.112 22.836 0 17.724 0 11.418 0 5.112 5.112 0 11.418 0zm.86 4.43c-2.537 0-3.114 1.9-3.114 3.114v1.698H7.696v2.623h1.468v7.464h3.087v-7.464h2.038l.27-2.62H12.25V7.7c0-.58.383-.716.655-.716h1.66V4.44z"/>
        </g>
    </g>
</svg>
