<svg xmlns="http://www.w3.org/2000/svg" width="23" height="23" viewBox="0 0 23 23">
    <g fill="none" fill-rule="evenodd">
        <rect width="1055" height="492" y="33" stroke="#6236FF" stroke-width="4" rx="19" transform="translate(-292 -104)"/>
        <g fill="#fff" fill-rule="nonzero">
            <path d="M11.5 0C17.851 0 23 5.149 23 11.5S17.851 23 11.5 23 0 17.851 0 11.5 5.149 0 11.5 0zm2.912 5H8.587l-.19.005A3.592 3.592 0 0 0 5 8.588v5.824l.005.19A3.592 3.592 0 0 0 8.587 18h5.825l.19-.005A3.592 3.592 0 0 0 18 14.412V8.588l-.005-.19A3.592 3.592 0 0 0 14.412 5zm-.188 1.5A2.279 2.279 0 0 1 16.5 8.776v5.448l-.005.155a2.28 2.28 0 0 1-2.271 2.121H8.776l-.155-.005A2.28 2.28 0 0 1 6.5 14.224V8.776l.005-.155A2.28 2.28 0 0 1 8.776 6.5zM11.352 8A3.355 3.355 0 0 0 8 11.352a3.355 3.355 0 0 0 3.352 3.351 3.355 3.355 0 0 0 3.351-3.351A3.355 3.355 0 0 0 11.352 8zm0 1.154a2.2 2.2 0 0 1 2.197 2.198 2.2 2.2 0 0 1-2.197 2.197 2.2 2.2 0 0 1-2.198-2.197 2.2 2.2 0 0 1 2.198-2.198zM14.5 7a.502.502 0 0 0-.5.5.504.504 0 0 0 .5.5c.132 0 .26-.054.354-.146a.504.504 0 0 0 0-.708A.502.502 0 0 0 14.5 7z"/>
        </g>
    </g>
</svg>
