<svg xmlns="http://www.w3.org/2000/svg" width="23" height="23" viewBox="0 0 23 23">
    <g fill="none" fill-rule="evenodd">
        <rect width="1055" height="492" y="33" stroke="#6236FF" stroke-width="4" rx="19" transform="translate(-225 -104)"/>
        <g fill="#fff" fill-rule="nonzero">
            <path d="M11.418 0c6.306 0 11.419 5.112 11.419 11.418 0 6.306-5.113 11.418-11.419 11.418S0 17.724 0 11.418C0 5.112 5.112 0 11.418 0zm2.901 6.926a2.73 2.73 0 0 0-2.658 3.351 7.748 7.748 0 0 1-5.626-2.852 2.73 2.73 0 0 0 .844 3.644 2.71 2.71 0 0 1-1.235-.341v.034a2.73 2.73 0 0 0 2.189 2.676 2.72 2.72 0 0 1-1.232.047 2.732 2.732 0 0 0 2.55 1.896 5.476 5.476 0 0 1-4.042 1.13 7.72 7.72 0 0 0 4.184 1.226c5.02 0 7.765-4.159 7.765-7.766 0-.118-.002-.236-.008-.353a5.535 5.535 0 0 0 1.362-1.412 5.445 5.445 0 0 1-1.567.43 2.737 2.737 0 0 0 1.2-1.51 5.464 5.464 0 0 1-1.733.662 2.727 2.727 0 0 0-1.993-.862z"/>
        </g>
    </g>
</svg>
